<?xml version="1.0" encoding="iso-8859-1"?>
<!-- Uploaded to: SVG Repo, www.svgrepo.com, Generator: SVG Repo Mixer Tools -->
<svg fill="#000000" version="1.1" id="Layer_1" xmlns="http://www.w3.org/2000/svg" xmlns:xlink="http://www.w3.org/1999/xlink" 
	 viewBox="0 0 512 512" xml:space="preserve">
<g>
	<g>
		<path d="M290.133,61.41v-2.27c0-18.852-15.281-34.133-34.133-34.133s-34.133,15.281-34.133,34.133v2.27
			C96.614,78.098,0,185.319,0,315.14v34.133l51.2,137.719c0,0,113.401-18.253,204.8-18.253s204.8,18.253,204.8,18.253L512,349.274
			V315.14C512,185.319,415.387,78.098,290.133,61.41z M427.182,430.491c-42.643-5.547-110.858-12.95-171.182-12.95
			s-128.539,7.404-171.182,12.95l-18.156-48.836c4.331-1.091,8.96-2.196,13.884-3.301c36.081-8.091,95.807-17.737,175.454-17.737
			s139.375,9.644,175.454,17.737c4.924,1.102,9.554,2.21,13.884,3.301L427.182,430.491z M460.8,332.762
			c-42.617-10.96-111.394-23.344-204.8-23.344c-93.394,0-162.183,12.38-204.8,23.34v-17.616c0-54.711,21.301-106.139,59.981-144.819
			c38.68-38.68,90.11-59.982,144.819-59.982s106.141,21.301,144.819,59.981c38.68,38.68,59.981,90.11,59.981,144.819V332.762z"/>
	</g>
</g>
<g>
	<g>
		
			<rect x="219.791" y="150.938" transform="matrix(0.7071 -0.7071 0.7071 0.7071 -57.3512 235.8311)" width="72.413" height="72.413"/>
	</g>
</g>
</svg>