<?xml version="1.0" encoding="iso-8859-1"?>
<!-- Uploaded to: SVG Repo, www.svgrepo.com, Generator: SVG Repo Mixer Tools -->
<svg fill="#000000" height="800px" width="800px" version="1.1" id="Layer_1" xmlns="http://www.w3.org/2000/svg" xmlns:xlink="http://www.w3.org/1999/xlink" 
	 viewBox="0 0 512 512" xml:space="preserve">
<g>
	<g>
		<path d="M309.474,294.182c-1.96-3.82-6.645-5.328-10.464-3.368c-3.82,1.96-5.327,6.644-3.368,10.463
			c12.387,24.145,13.791,49.363,3.852,69.188c-7.032,14.027-19.912,15.603-29.477,14.453c-2.254-0.271-4.512,0.457-6.184,1.993
			c-1.672,1.535-2.589,3.724-2.51,5.992l1.17,33.981c0.006,0.181,0.019,0.363,0.037,0.542c0.084,0.796-0.192,1.577-0.816,2.327
			c-1.079,1.292-2.958,2.158-5.028,2.314c-3.965,0.299-6.982-1.92-7.211-4.102c-0.013-0.123-0.017-0.365,0.006-0.602
			c0.016-0.16,0.026-0.32,0.031-0.48l1.17-33.981c0.079-2.267-0.839-4.457-2.51-5.992c-1.671-1.535-3.931-2.264-6.184-1.993
			c-9.566,1.148-22.446-0.427-29.478-14.453c-8.235-16.429-8.689-36.818-1.275-57.415c8.302-23.077,25.268-42.989,44.762-52.79
			c8.009,4.034,15.795,9.9,22.692,17.117c2.965,3.103,7.884,3.215,10.989,0.25c3.104-2.966,3.216-7.885,0.25-10.989
			c-9.191-9.618-19.84-17.253-30.794-22.081c-1.997-0.88-4.272-0.88-6.27,0c-24.56,10.826-46.117,35.054-56.258,63.23
			c-8.869,24.641-8.157,49.375,2.005,69.646c7.22,14.401,20.158,22.598,36.245,23.288l-0.875,25.421
			c-0.095,1.161-0.085,2.347,0.031,3.449c1.077,10.266,10.753,18.05,21.996,18.05c0.612,0,1.23-0.023,1.851-0.069
			c6.265-0.475,12.019-3.339,15.789-7.857c3.253-3.899,4.798-8.717,4.37-13.598l-0.875-25.396
			c16.086-0.688,29.026-8.885,36.245-23.288C325.576,353.129,324.148,322.785,309.474,294.182z"/>
	</g>
</g>
<g>
	<g>
		<path d="M346.16,469.927c-3.578-2.371-8.401-1.392-10.772,2.188c-6.139,9.269-12.854,17.444-19.99,24.34H196.603
			c-35.154-33.949-56.888-95.229-56.888-160.908c0-27.998,3.857-54.128,11.463-77.665c1.319-4.084-0.922-8.466-5.008-9.786
			c-4.084-1.319-8.466,0.921-9.785,5.007c-8.105,25.084-12.215,52.822-12.215,82.445c0,35.651,6.04,70.696,17.466,101.346
			c11.206,30.057,27.327,55.32,46.621,73.057c1.434,1.318,3.312,2.051,5.26,2.051h124.966c1.948,0,3.825-0.732,5.26-2.051
			c8.873-8.157,17.15-17.998,24.604-29.251C350.718,477.12,349.739,472.297,346.16,469.927z"/>
	</g>
</g>
<g>
	<g>
		<path d="M365.521,227.51c-13.257-27.943-32.276-50.828-55.13-66.452l-14.539-71.791c-0.734-3.624-3.919-6.229-7.618-6.229h-11.378
			V65.619h43.078c5.03,9.098,14.618,14.899,25.339,14.898c2.63,0,5.257-0.361,7.807-1.073c7.46-2.082,13.663-6.946,17.466-13.693
			c3.803-6.748,4.751-14.573,2.669-22.034c-4.853-17.385-21.842-36.096-47.674-36.096l-84.647,0.004
			C235.582,2.742,228.612,0,221.267,0c-5.169,0-10.263,1.396-14.732,4.037c-6.669,3.94-11.403,10.242-13.333,17.743
			c-1.93,7.501-0.821,15.306,3.118,21.973c5.667,9.589,19.109,20.701,38.822,21.775v17.51h-11.377c-3.698,0-6.884,2.605-7.618,6.229
			l-14.538,71.784c-20.945,14.325-38.809,34.915-51.798,59.798c-1.987,3.805-0.512,8.501,3.294,10.488
			c3.805,1.987,8.5,0.512,10.488-3.294c11.51-22.048,27.119-40.332,45.344-53.177l42.713,28.85c0.329,0.222,0.669,0.417,1.021,0.583
			c2.106,0.999,4.555,0.999,6.659,0c0.35-0.167,0.692-0.361,1.021-0.583l42.713-28.85c19.946,14.045,36.619,34.446,48.414,59.305
			c13.807,29.104,20.808,63.211,20.808,101.375c0,39.437-7.596,77.216-21.968,109.251c-1.758,3.917-0.006,8.517,3.91,10.273
			c1.033,0.463,2.113,0.683,3.176,0.683c2.968,0,5.802-1.709,7.096-4.593c15.263-34.022,23.33-74.001,23.33-115.614
			C387.83,295.06,380.324,258.711,365.521,227.51z M209.705,35.845c-1.828-3.094-2.342-6.714-1.447-10.193
			c0.895-3.479,3.091-6.404,6.185-8.232c2.075-1.226,4.435-1.875,6.823-1.875c4.01,0,7.774,1.751,10.327,4.807
			c1.311,1.569,3.188,2.557,5.223,2.751c0.381,0.036,0.859,0.065,1.442,0.065h87.284c17.724,0,29.376,12.82,32.701,24.729
			c0.966,3.461,0.526,7.092-1.237,10.221c-1.765,3.131-4.642,5.387-8.103,6.353c-1.189,0.332-2.409,0.501-3.627,0.501
			c-5.884,0-11.032-3.77-12.809-9.383c-0.076-0.237-0.162-0.471-0.259-0.7c-0.068-0.161-0.184-0.408-0.263-0.563
			c-1.325-2.609-4.003-4.253-6.931-4.253H269.09c-0.001,0-0.003,0-0.005,0h-26.169c-0.001,0-0.003,0-0.004,0h-4.653
			C223.39,50.074,213.584,42.409,209.705,35.845z M261.312,65.619v17.418h-10.624V65.619H261.312z M256.001,187.896l-38.675-26.123
			l12.798-63.192h12.794h26.169h12.794l12.798,63.192L256.001,187.896z"/>
	</g>
</g>
</svg>