<?xml version="1.0" encoding="iso-8859-1"?>
<!-- Uploaded to: SVG Repo, www.svgrepo.com, Generator: SVG Repo Mixer Tools -->
<svg fill="#000000" version="1.1" id="Layer_1" xmlns="http://www.w3.org/2000/svg" xmlns:xlink="http://www.w3.org/1999/xlink" 
	 viewBox="0 0 511.999 511.999" xml:space="preserve">
<g>
	<g>
		<path d="M480,0H31.997v110.569h29.089v401.43h270.55v-17.484H78.57v-93.056h317.058v-17.484H78.57V244.379h72.708v-17.484H78.57
			V110.569h354.859v63.967H116.371v17.484h317.058v34.876H360.72v17.484h72.708v250.137h-72.705v17.484h90.189v-401.43h29.089V0H480
			z M107.629,93.085H49.481V17.484h58.148V93.085z M177.443,93.085h-52.331V17.484h52.331V93.085z M247.258,93.085h-52.331V17.484
			h52.331V93.085z M317.071,93.085h-52.33V17.484h52.33V93.085z M386.885,93.085h-52.331V17.484h52.331V93.085z M462.517,93.085
			h-58.148V17.484h58.148V93.085z"/>
	</g>
</g>
<g>
	<g>
		<path d="M308.783,281.877l40.267-39.663l-12.268-12.455L296.8,269.141c-9.108-9.198-27.195-23.764-51.777-25.598
			c-24.123-1.794-48.083,9.003-71.187,32.106l-5.323,5.323l4.475,6.054c0.918,1.241,22.887,30.444,58.381,33.092
			c1.726,0.128,3.448,0.193,5.172,0.193c20.174,0,40.189-8.847,59.653-26.299l40.892,40.892l12.362-12.363L308.783,281.877z
			 M232.817,302.693c-18.885-1.353-33.374-13.079-40.633-20.339c17.294-15.405,34.548-22.598,51.391-21.387
			c18.89,1.354,33.381,13.086,40.633,20.338C266.915,296.712,249.647,303.892,232.817,302.693z"/>
	</g>
</g>
<g>
	<g>
		<rect x="104.737" y="442.16" width="34.907" height="17.484"/>
	</g>
</g>
<g>
	<g>
		<rect x="157.095" y="442.16" width="34.907" height="17.484"/>
	</g>
</g>
<g>
	<g>
		<rect x="372.353" y="442.16" width="34.907" height="17.484"/>
	</g>
</g>
<g>
	<g>
		<rect x="372.353" y="279.26" width="34.907" height="17.484"/>
	</g>
</g>
<g>
	<g>
		<rect x="104.737" y="279.26" width="34.907" height="17.484"/>
	</g>
</g>
</svg>