<?xml version="1.0" encoding="iso-8859-1"?>
<!-- Uploaded to: SVG Repo, www.svgrepo.com, Generator: SVG Repo Mixer Tools -->
<svg fill="#000000" height="800px" width="800px" version="1.1" id="Layer_1" xmlns="http://www.w3.org/2000/svg" xmlns:xlink="http://www.w3.org/1999/xlink" 
	 viewBox="0 0 512 512" xml:space="preserve">
<g>
	<g>
		<path d="M496,355.863H377.041c-6.654-77.924-60.113-142.162-132.579-164.532c6.664-35.09-20.381-67.195-55.603-67.195
			c-35.274,0-62.246,32.163-55.593,67.194C54.197,215.737,0,288.868,0,371.863c0,8.836,7.164,16,16,16c17.94,0,459.881,0,480,0
			c8.836,0,16-7.164,16-16C512,363.027,504.836,355.863,496,355.863z M188.858,156.136c15.01,0,26.646,13.417,24.313,28.411
			c-15.609-1.992-32.334-2.092-48.614,0C162.223,169.56,173.849,156.136,188.858,156.136z M115.484,355.863H32.819
			c6.389-62.188,49.612-115.13,109.156-133.753C123.67,259.698,116.732,313.711,115.484,355.863z M147.492,355.863
			c2.795-89.58,27.876-139.663,41.115-140.851c0.169,0,0.337,0,0.506,0c12.825,1.13,38.285,49.982,41.12,140.851H147.492z
			 M262.243,355.863c-1.246-42.072-8.172-96.133-26.492-133.752c59.55,18.628,102.767,71.567,109.157,133.752H262.243z"/>
	</g>
</g>
</svg>