<?xml version="1.0" encoding="iso-8859-1"?>
<!-- Uploaded to: SVG Repo, www.svgrepo.com, Generator: SVG Repo Mixer Tools -->
<svg fill="#000000" height="800px" width="800px" version="1.1" id="Layer_1" xmlns="http://www.w3.org/2000/svg" xmlns:xlink="http://www.w3.org/1999/xlink" 
	 viewBox="0 0 512 512" xml:space="preserve">
<g>
	<g>
		<path d="M172.941,96.752V0H58.475v96.752c-33.863,59.169-51.75,126.33-51.75,194.551V512h217.966V291.304
			C224.691,223.083,206.805,155.921,172.941,96.752z M91.866,33.391h47.684v51.133H91.866V33.391z M84.866,117.916h61.684
			c21.78,39.391,35.898,82.508,41.715,126.954H43.152C48.969,200.424,63.086,157.306,84.866,117.916z M191.3,478.609H40.116v-72.348
			H191.3V478.609z M191.3,372.87H40.116v-81.566c0-4.353,0.089-8.701,0.247-13.043h150.689c0.158,4.342,0.247,8.69,0.247,13.043
			V372.87z"/>
	</g>
</g>
<g>
	<g>
		<path d="M472.214,333.644c0.211-22.959-11.92-45.056-32.332-56.84c-9.35-5.398-19.704-8.203-30.081-8.545l5.347-125.438
			c0.477-11.189-3.527-21.803-11.276-29.89c-7.748-8.085-18.183-12.538-29.381-12.538c-11.198,0-21.633,4.453-29.38,12.538
			c-7.749,8.086-11.754,18.7-11.276,29.89l5.347,125.438c-10.378,0.342-20.733,3.146-30.081,8.544
			c-20.412,11.785-32.543,33.881-32.332,56.84c-19.989,11.295-33.06,32.851-33.06,56.421c0.001,23.569,13.072,45.124,33.06,56.419
			c-0.211,22.958,11.92,45.055,32.332,56.84c9.997,5.773,21.141,8.588,32.237,8.587c11.559-0.001,23.065-3.056,33.154-9.008
			c19.777,11.664,44.979,12.207,65.391,0.421c20.413-11.786,32.544-33.882,32.333-56.84c19.988-11.295,33.059-32.851,33.059-56.42
			C505.275,366.494,492.202,344.94,472.214,333.644z M369.219,136.036c0.805-0.84,2.561-2.249,5.271-2.249
			c2.713,0,4.469,1.41,5.272,2.249c0.806,0.84,2.139,2.655,2.023,5.364l-5.752,134.948c-0.518,0.286-1.034,0.575-1.545,0.877
			c-0.51-0.302-1.026-0.59-1.544-0.876l-5.752-134.948C367.08,138.69,368.413,136.877,369.219,136.036z M449.479,420.093
			l-15.184,4.501l3.694,15.4c3.209,13.378-2.879,27.529-14.805,34.414c-11.922,6.884-27.224,5.081-37.206-4.388l-11.49-10.9
			l-11.49,10.9c-9.983,9.47-25.283,11.272-37.205,4.388c-11.925-6.885-18.013-21.036-14.805-34.414l3.694-15.4l-15.184-4.501
			c-13.191-3.911-22.402-16.259-22.403-30.029c0-13.769,9.213-26.118,22.403-30.029l15.184-4.501l-3.694-15.4
			c-3.209-13.378,2.878-27.529,14.803-34.414c4.842-2.795,10.236-4.157,15.607-4.157c7.861,0,15.668,2.921,21.597,8.546l11.49,10.9
			l11.49-10.9c9.983-9.468,25.281-11.273,37.205-4.388h0.001c11.925,6.885,18.013,21.037,14.805,34.414l-3.694,15.4l15.184,4.501
			c13.191,3.911,22.402,16.258,22.402,30.029S462.67,416.181,449.479,420.093z"/>
	</g>
</g>
</svg>