<?xml version="1.0" encoding="iso-8859-1"?>
<!-- Uploaded to: SVG Repo, www.svgrepo.com, Generator: SVG Repo Mixer Tools -->
<svg fill="#000000" height="800px" width="800px" version="1.1" id="Layer_1" xmlns="http://www.w3.org/2000/svg" xmlns:xlink="http://www.w3.org/1999/xlink" 
	 viewBox="0 0 512 512" xml:space="preserve">
<g>
	<g>
		<path d="M333.576,155.152v-46.545H287.03V0h-93.091c-25.706,0-46.545,20.84-46.545,46.545c9.053,0,44.611,0,77.576,0v62.061
			h-46.545v46.545c-41.131,0-62.061,20.93-62.061,62.061V512h279.273V217.212C395.636,176.081,374.706,155.152,333.576,155.152z
			 M256,442.182c-59.982,0-108.606-48.623-108.606-108.606c0-59.982,48.625-108.606,108.606-108.606s108.606,48.624,108.606,108.606
			C364.606,393.559,315.982,442.182,256,442.182z"/>
	</g>
</g>
<g>
	<g>
		<path d="M341.648,316.343l-24.21-15.442c-0.005,0.005-0.011,0.011-0.017,0.017c-3.745-23.051-23.738-40.651-47.846-40.651
			c-26.776,0-48.485,21.707-48.485,48.485c0,10.051,3.06,19.385,8.296,27.127c-0.754,0.095-1.53,0.155-2.347,0.155
			c-26.509,0-45.106-16.292-45.106-16.292s-3.51,5.277-3.51,17.326c0,38.56,31.258,69.818,69.818,69.818
			c38.561,0,69.818-31.258,69.818-69.818c0-1.907-0.191-3.637-0.535-5.218L341.648,316.343z"/>
	</g>
</g>
</svg>