<?xml version="1.0" encoding="iso-8859-1"?>
<!-- Uploaded to: SVG Repo, www.svgrepo.com, Generator: SVG Repo Mixer Tools -->
<svg fill="#000000" height="800px" width="800px" version="1.1" id="Layer_1" xmlns="http://www.w3.org/2000/svg" xmlns:xlink="http://www.w3.org/1999/xlink" 
	 viewBox="0 0 512 512" xml:space="preserve">
<g>
	<g>
		<path d="M339.478,133.565h-33.391V116.87c0-21.766-13.959-40.323-33.391-47.215V33.391h50.087c9.206,0,16.696,7.49,16.696,16.696
			v33.391c0,9.22,7.475,16.696,16.696,16.696c9.22,0,16.696-7.475,16.696-16.696V50.087C372.87,22.469,350.401,0,322.783,0H155.826
			c-9.22,0-16.696,7.475-16.696,16.696s7.475,16.696,16.696,16.696h83.478v36.263c-19.433,6.892-33.391,25.45-33.391,47.215v16.696
			h-33.391c-46.03,0-83.478,37.448-83.478,83.478v244.87c0,27.618,22.469,50.087,50.087,50.087H372.87
			c27.618,0,50.087-22.469,50.087-50.087v-244.87C422.957,171.014,385.508,133.565,339.478,133.565z M239.304,116.87
			c0-9.206,7.49-16.696,16.696-16.696s16.696,7.49,16.696,16.696v16.696h-33.391V116.87z M389.565,461.913
			c0,9.206-7.49,16.696-16.696,16.696H139.13c-9.206,0-16.696-7.49-16.696-16.696v-244.87c0-27.618,22.469-50.087,50.087-50.087
			c16.643,0,150.591,0,166.957,0c27.618,0,50.087,22.469,50.087,50.087V461.913z"/>
	</g>
</g>
<g>
	<g>
		<path d="M325.976,385.84c8.99-13.54,13.823-29.42,13.823-46.044c0-22.298-8.683-43.261-24.45-59.027
			c-13.801-13.801-39.623-22.435-78.942-26.392c-27.004-2.717-50.387-2.131-51.369-2.103c-8.87,0.238-16.003,7.372-16.242,16.242
			c-0.026,0.982-0.614,24.368,2.104,51.368c3.958,39.318,12.591,65.14,26.391,78.942c16.274,16.274,37.651,24.411,59.028,24.411
			c16.068,0,32.135-4.599,46.035-13.794l8.542,8.542c6.52,6.52,17.091,6.52,23.611,0c6.52-6.519,6.52-17.091,0-23.611
			L325.976,385.84z M301.532,361.399l-33.407-33.407c-6.519-6.519-17.091-6.519-23.611,0c-6.52,6.519-6.52,17.091,0,23.611
			l33.386,33.386c-18.615,8.868-41.608,5.616-56.998-9.774c-12.383-12.381-17.971-55.357-18.738-89.572
			c34.217,0.766,77.191,6.357,89.572,18.738c9.46,9.46,14.67,22.038,14.67,35.416C306.406,347.399,304.72,354.739,301.532,361.399z"
			/>
	</g>
</g>
</svg>